<?xml version="1.0" encoding="utf-8"?>
<!-- Generator: Adobe Illustrator 21.0.0, SVG Export Plug-In . SVG Version: 6.00 Build 0)  -->
<svg version="1.1" id="圖層_1" xmlns="http://www.w3.org/2000/svg" xmlns:xlink="http://www.w3.org/1999/xlink" x="0px" y="0px"
	 viewBox="0 0 200 80" style="enable-background:new 0 0 200 80;" xml:space="preserve">
<style type="text/css">
	.st0{fill:url(#SVGID_1_);}
	.st1{fill:#231815;}
</style>
<g>
	<linearGradient id="SVGID_1_" gradientUnits="userSpaceOnUse" x1="44.7953" y1="1.999" x2="44.7953" y2="71.326">
		<stop  offset="0" style="stop-color:#1695D4"/>
		<stop  offset="1" style="stop-color:#00B1C3"/>
	</linearGradient>
	<path class="st0" d="M75.5,48.2L75.5,48.2L75.5,48.2c-0.3-0.3-0.7-0.6-1-0.9C71.7,44.7,64.3,37,64.3,29.1C64.3,14.1,52.2,2,37.2,2
		c-15,0-27.1,12.1-27.1,27.1c0,0,0,0.6,0.1,1.7c0.1,1.6,0.3,3.1,0.7,4.6c2.4,11.8,12.5,36,55,36c7.5,0,13.5-6.1,13.5-13.5
		C79.5,54.1,77.9,50.7,75.5,48.2z"/>
	<g>
		<path class="st1" d="M111.2,49.9l0.9-1.2l1.8,1.3c-0.2,0.3-0.4,0.4-1,0.4h-2.8v5.1c0,1.2-0.3,2-2.1,2.2c0-1.1-0.3-1.4-1.6-1.5
			v-0.3h1.7c0.2,0,0.3-0.1,0.3-0.4v-5.1H105l-0.1-0.4c-0.3,2.5-1.1,5.1-3,7.1l-0.3-0.3c1.7-3.3,1.8-7.3,1.8-10.9V41l2,0.8h5.6
			l0.8-0.9l2.1,1.4c-0.1,0.2-0.5,0.3-0.9,0.4v3c0,0-0.5,0.5-1.7,0.5v-0.7h-6.1c0,1.5,0,2.8-0.2,4.4H111.2z M107.9,39.1H102l-0.1-0.5
			h6v-2.4l2.7,0.2c0,0.3-0.2,0.5-0.9,0.6v1.6h5.6v-2.4l2.7,0.2c0,0.3-0.2,0.5-0.9,0.5v1.7h2.9l1.1-1.5l2.2,1.6
			c-0.2,0.3-0.5,0.4-1.1,0.4h-5.1v1.4c0,0.2-0.6,0.5-1.5,0.5h-0.3v-1.9h-5.6v1.6c0,0-0.3,0.5-1.8,0.5V39.1z M103.9,56.4
			c0.8-1.1,1.6-2.9,2-4.8l2.2,0.7c-0.1,0.3-0.3,0.4-0.8,0.3c-0.8,1.6-1.9,3.1-3.1,3.9L103.9,56.4z M111.2,42.3h-6.1V45h6.1V42.3z
			 M110,47.5l0.9-1.1l1.8,1.2c-0.2,0.3-0.4,0.4-1,0.4h-5.7l-0.1-0.5H110z M111.1,51.8c2,0.9,2.7,2,2.7,2.8c0,0.6-0.4,1.1-0.9,1.1
			c-0.3,0-0.5-0.1-0.7-0.4c0-1.1-0.6-2.5-1.3-3.4L111.1,51.8z M121.9,43.8l1.8,1.5c-0.2,0.3-0.5,0.5-1.1,0.5h-2v9.3
			c0,1.4-0.3,2.3-2.6,2.6c0-1.3-0.5-1.6-2.3-1.8v-0.4h2.6c0.4,0,0.5-0.1,0.5-0.4v-9.3h-5.6l-0.1-0.5h5.7v-4.2l2.7,0.2
			c0,0.3-0.2,0.5-1,0.6v3.4h0.3L121.9,43.8z M114.4,47.6c2.2,1.2,2.9,2.5,2.9,3.5c0,0.8-0.5,1.4-1,1.4c-0.3,0-0.6-0.1-0.8-0.4
			c0.1-1.4-0.6-3.2-1.4-4.3L114.4,47.6z"/>
		<path class="st1" d="M146.7,55l1.9,1.5c-0.2,0.3-0.4,0.5-1.1,0.5h-20.3l-0.1-0.5h3.1v-6l2,0.8h11.1l0.9-1.1l2.2,1.6
			c-0.2,0.2-0.5,0.4-1.1,0.4v4.3h0.3L146.7,55z M133.1,39.1h-5.9l-0.1-0.5h6v-2.4l2.7,0.2c0,0.3-0.2,0.5-0.9,0.6v1.6h5.6v-2.4
			l2.7,0.2c0,0.3-0.2,0.5-0.9,0.5v1.7h2.9l1.1-1.5l2.2,1.6c-0.2,0.3-0.5,0.4-1.1,0.4h-5.1v1.4c0,0.1-0.1,0.2-0.3,0.2l0.8,0.2
			c-0.1,0.3-0.3,0.4-0.8,0.4c-0.2,0.6-0.4,1.1-0.6,1.6h3.9l1.1-1.4l2,1.4c-0.2,0.3-0.4,0.5-1.1,0.5h-6.2c-0.8,1.4-1.7,2.6-2.7,3.4
			l-0.3-0.2c0.9-1.4,1.7-3.9,2.1-6.4l0.3,0.1v-1.3h-5.6v1.6c0,0-0.3,0.5-1.8,0.5V39.1z M138.5,41.5c-0.2,0.3-0.5,0.4-1.1,0.4h-3.6
			v1.9h1.6L136,43l1.9,1.3c-0.1,0.1-0.4,0.3-0.7,0.3v2.4c0,0-0.4,0.5-1.6,0.5v-0.5h-1.8v2h2.4l1-1.2l1.9,1.3
			c-0.2,0.3-0.5,0.4-1.1,0.4h-7.8v0.7c0,0.1-0.5,0.5-1.4,0.5h-0.3V40.6l1.9,0.8h5.3l0.9-1.1L138.5,41.5z M132.2,43.8v-1.9h-2.1v1.9
			H132.2z M135.5,44.3h-5.4v2.2h5.4V44.3z M132.2,49v-2h-2.1v2H132.2z M131.9,51.8v4.6h2.7v-4.6H131.9z M139,51.8h-2.8v4.6h2.8V51.8
			z M144.6,47.6l1.1-1.4l2,1.4c-0.2,0.3-0.5,0.4-1.1,0.4h-6.8l-0.1-0.5H144.6z M143.5,51.8h-2.8v4.6h2.8V51.8z"/>
		<path class="st1" d="M173.7,41.3c-0.2,0.3-0.5,0.5-1.1,0.5h-2.8c-1.1,3.9-2.8,7.1-5.4,9.8c2.6,2,5.8,3.4,9.4,4.3l-0.1,0.3
			c-0.9,0.1-1.7,0.6-2.1,1.6c-3.4-1.1-6.3-2.7-8.6-5c-2.6,2.2-6.1,3.9-10.5,5l-0.1-0.4c4.1-1.3,7.2-3.2,9.6-5.6
			c-2.2-2.5-3.8-5.8-4.7-9.9h-4.8l-0.1-0.5h9.6v-5l2.9,0.3c0,0.4-0.3,0.5-1,0.6v4.1h6l1.3-1.7L173.7,41.3z M157.8,41.8
			c1,3.6,2.8,6.5,5.3,8.7c2.1-2.5,3.5-5.4,4.3-8.7H157.8z"/>
		<path class="st1" d="M180.8,45.1c-0.9,1.4-1.9,2.5-3,3.5l-0.3-0.2c1.9-2.7,4-7.5,5.2-12.2l2.8,0.9c-0.1,0.3-0.3,0.4-0.9,0.4
			c-0.6,1.7-1.4,3.3-2.2,4.8l0.9,0.3c-0.1,0.2-0.3,0.3-0.7,0.4V57c0,0.2-0.8,0.6-1.5,0.6h-0.3V45.1z M198,51.5l0,3.5
			c0.8,0.3,1,0.4,1,0.7c0,0.9-0.7,1.2-3.2,1.2h-5.1c-2.4,0-3.1-0.5-3.1-2.9V36.6l2.8,0.3c0,0.3-0.2,0.5-1,0.6V46
			c2.6-1.6,5.3-3.8,6.8-5.4l2.3,1.7c-0.1,0.1-0.2,0.2-0.4,0.2c-0.1,0-0.3,0-0.4-0.1c-1.9,1.4-5.2,3.1-8.3,4.2v7.5
			c0,1,0.2,1.1,1.2,1.1h5.2c0.4,0,0.7,0,1-0.4c0.2-0.3,0.6-1.7,1.1-3.4H198z"/>
		<path class="st1" d="M105.8,71.5v-0.1c0,0,0.1,0,0.2,0c0.1,0,0.2,0,0.3-0.1c0.1,0,0.2-0.1,0.2-0.1c0.1-0.1,0.1-0.1,0.1-0.2
			c0-0.1,0-0.2-0.1-0.3c0-0.1-0.1-0.3-0.2-0.5c-0.1-0.2-0.2-0.4-0.2-0.7c-0.1-0.3-0.2-0.5-0.3-0.8H103c-0.1,0.3-0.2,0.5-0.3,0.8
			c-0.1,0.2-0.2,0.5-0.3,0.7c-0.1,0.4-0.2,0.7-0.2,0.8c0,0.1,0,0.2,0.1,0.2c0.1,0.1,0.1,0.1,0.2,0.1c0.1,0,0.2,0.1,0.3,0.1
			c0.1,0,0.2,0,0.3,0v0.1h-2.3v-0.1c0.2,0,0.3-0.1,0.5-0.2c0.1-0.1,0.2-0.1,0.2-0.2c0.1-0.1,0.1-0.2,0.2-0.4
			c0.1-0.2,0.3-0.5,0.4-0.8c0.1-0.3,0.3-0.7,0.5-1.1c0.2-0.4,0.4-0.9,0.6-1.3c0.2-0.5,0.4-0.9,0.6-1.4c0.2-0.5,0.4-0.9,0.5-1.3
			l-0.1-0.2c0.1-0.1,0.2-0.1,0.3-0.2c0.1-0.1,0.2-0.2,0.3-0.2c0.1-0.1,0.1-0.2,0.2-0.2c0.1-0.1,0.1-0.1,0.1-0.2h0.1
			c0.2,0.6,0.4,1.2,0.6,1.7c0.2,0.5,0.4,1,0.6,1.5c0.2,0.5,0.4,1,0.5,1.4c0.2,0.5,0.3,0.9,0.5,1.4c0.1,0.2,0.2,0.4,0.2,0.5
			c0.1,0.1,0.1,0.3,0.2,0.5c0,0,0,0.1,0.1,0.1c0.1,0.1,0.1,0.1,0.2,0.2c0.1,0.1,0.2,0.1,0.3,0.2c0.1,0.1,0.3,0.1,0.4,0.1v0.1H105.8z
			 M104.4,65c0,0.1-0.1,0.2-0.2,0.4c-0.1,0.2-0.2,0.4-0.3,0.7c-0.1,0.3-0.3,0.6-0.4,1c-0.1,0.4-0.3,0.8-0.5,1.2h2.7
			c-0.1-0.3-0.2-0.6-0.4-1c-0.1-0.3-0.2-0.6-0.4-0.9c-0.1-0.3-0.2-0.6-0.3-0.8C104.6,65.3,104.5,65.1,104.4,65z"/>
		<path class="st1" d="M116.9,71.5h-6.5l0-0.1l5.4-7.4c-0.1,0-0.3,0-0.6,0c-0.2,0-0.5,0-0.7,0s-0.5,0-0.7,0c-0.2,0-0.4,0-0.6,0
			c-0.3,0-0.5,0.1-0.7,0.2c-0.2,0.1-0.4,0.2-0.6,0.4c-0.1,0.1-0.2,0.2-0.3,0.3c-0.1,0.1-0.3,0.3-0.4,0.4c-0.1,0.1-0.3,0.3-0.4,0.5
			c-0.1,0.2-0.2,0.3-0.3,0.4l-0.1,0l0.8-2.3c0.1,0,0.3,0,0.5,0c0.3,0,0.6,0,0.9,0c0.4,0,0.8,0,1.2,0c0.4,0,0.9,0,1.3,0
			c0.4,0,0.8,0,1.2,0c0.4,0,0.7,0,1,0l0,0.1l-5.4,7.4c0.4,0,0.7,0,1,0c0.3,0,0.6,0,0.9,0c0.1,0,0.3,0,0.5,0c0.2,0,0.4,0,0.6,0
			c0.6-0.1,1.1-0.3,1.6-0.7c0.5-0.4,0.9-0.9,1.2-1.5l0.1,0L116.9,71.5z"/>
		<path class="st1" d="M127.6,64.1c-0.2,0.1-0.3,0.3-0.4,0.5c0,0,0,0.1-0.1,0.2c0,0.1,0,0.2,0,0.4c0,0.1,0,0.3,0,0.5
			c0,0.2,0,0.3,0,0.5c0,0.3,0,0.6,0,1c0,0.4,0,0.8,0,1.3c0,0.1,0,0.3,0,0.5c0,0.2,0,0.4-0.1,0.7c-0.1,0.2-0.1,0.5-0.3,0.7
			c-0.1,0.2-0.3,0.4-0.5,0.6c-0.2,0.2-0.5,0.3-0.9,0.4c-0.4,0.1-0.8,0.2-1.3,0.2c-0.5,0-0.9-0.1-1.3-0.2c-0.4-0.1-0.6-0.3-0.9-0.4
			c-0.2-0.2-0.4-0.4-0.5-0.6c-0.1-0.2-0.2-0.4-0.3-0.6c-0.1-0.2-0.1-0.4-0.1-0.6c0-0.2,0-0.3,0-0.4c0-0.2,0-0.5,0-0.8
			c0-0.3,0-0.7,0-1.1v-1.4c0-0.1,0-0.3,0-0.4c0-0.1,0-0.2,0-0.4c0-0.1,0-0.2,0-0.3c0-0.1-0.1-0.2-0.1-0.2c-0.1-0.1-0.2-0.2-0.4-0.3
			c-0.1-0.1-0.3-0.1-0.5-0.1v-0.1h3.2v0.1c-0.1,0-0.2,0-0.3,0.1c-0.1,0-0.2,0.1-0.3,0.1c-0.1,0.1-0.2,0.1-0.2,0.3
			c-0.1,0.1-0.1,0.2-0.1,0.4c0,0.2,0,0.3,0,0.5c0,0.1,0,0.3,0,0.4c0,0.1,0,0.3,0,0.4c0,0.1,0,0.3,0,0.5c0,0.2,0,0.5,0,0.7
			c0,0.2,0,0.4,0,0.5c0,0.2,0,0.3,0,0.5c0,0.2,0,0.3,0,0.5c0,0.4,0.1,0.7,0.2,1c0.1,0.3,0.3,0.6,0.5,0.8c0.2,0.2,0.4,0.4,0.7,0.5
			c0.3,0.1,0.6,0.2,1,0.2c0.4,0,0.8,0,1-0.1c0.3-0.1,0.5-0.2,0.7-0.4c0.2-0.2,0.3-0.4,0.4-0.6c0.1-0.2,0.2-0.4,0.2-0.7
			c0.1-0.2,0.1-0.5,0.1-0.7c0-0.3,0-0.5,0-0.7c0-0.2,0-0.4,0-0.5c0-0.2,0-0.3,0-0.4c0-0.1,0-0.3,0-0.4c0-0.1,0-0.3,0-0.4
			c0-0.1,0-0.3,0-0.4c0-0.1,0-0.3,0-0.4c0-0.1,0-0.3,0-0.4c0-0.1,0-0.2-0.1-0.3c-0.1-0.2-0.2-0.4-0.4-0.5c-0.2-0.1-0.4-0.2-0.8-0.3
			v-0.1h2.7v0.1C127.9,63.9,127.7,64,127.6,64.1z"/>
		<path class="st1" d="M136.3,71.5c-0.1-0.1-0.1-0.1-0.1-0.1c0,0-0.1-0.1-0.1-0.1c0,0-0.1-0.1-0.1-0.2c-0.1-0.1-0.1-0.2-0.3-0.4
			c-0.1-0.2-0.3-0.4-0.4-0.5c-0.1-0.2-0.2-0.3-0.3-0.5c-0.1-0.2-0.2-0.3-0.3-0.5c-0.1-0.2-0.3-0.3-0.4-0.5c-0.1-0.2-0.3-0.3-0.5-0.5
			c-0.2-0.1-0.3-0.2-0.5-0.3c-0.1,0-0.2,0-0.3,0c-0.1,0-0.1,0-0.2,0c0,0.5,0,0.9,0,1.2s0,0.6,0,0.9c0,0.2,0,0.4,0,0.6
			c0,0.2,0,0.3,0.1,0.4c0.1,0.1,0.2,0.2,0.3,0.3c0.2,0.1,0.4,0.1,0.7,0.2v0.1h-3.4v-0.1c0.2,0,0.3-0.1,0.5-0.1
			c0.2-0.1,0.3-0.1,0.4-0.3c0,0,0.1-0.1,0.1-0.2c0-0.1,0-0.2,0-0.3c0-0.1,0-0.2,0-0.3c0-0.1,0-0.2,0-0.4c0-0.1,0-0.2,0-0.4
			c0-0.2,0-0.4,0-0.6c0-0.2,0-0.4,0-0.6c0-0.2,0-0.4,0-0.6v-2.1c0-0.1,0-0.3,0-0.4c0-0.1,0-0.3,0-0.4c0-0.1,0-0.2-0.1-0.3
			c0-0.1-0.1-0.2-0.1-0.2c-0.1-0.1-0.2-0.2-0.4-0.2c-0.1,0-0.3-0.1-0.5-0.1v-0.1c0.1,0,0.2,0,0.4,0c0.2,0,0.5,0,0.8,0
			c0.3,0,0.6,0,0.9,0c0.3,0,0.6,0,0.7,0c0.5,0,0.9,0,1.3,0c0.4,0,0.7,0.1,1,0.3c0.3,0.2,0.6,0.4,0.8,0.7c0.2,0.3,0.3,0.6,0.3,1.1
			c0,0.3,0,0.5-0.1,0.7c-0.1,0.2-0.2,0.4-0.4,0.6c-0.2,0.2-0.3,0.3-0.6,0.4c-0.2,0.1-0.4,0.2-0.7,0.3v0c0.1,0.1,0.2,0.2,0.4,0.3
			c0.1,0.1,0.2,0.3,0.3,0.4c0.2,0.3,0.4,0.6,0.6,0.9c0.2,0.3,0.4,0.6,0.6,0.8c0.3,0.4,0.5,0.6,0.8,0.8c0.2,0.2,0.5,0.3,0.9,0.3v0.1
			H136.3z M135.2,64.8c-0.2-0.3-0.4-0.5-0.8-0.7c-0.2-0.1-0.3-0.1-0.5-0.2c-0.2,0-0.4-0.1-0.6-0.1c-0.1,0-0.3,0-0.4,0
			c-0.1,0-0.2,0-0.2,0c0,0,0,0.1,0,0.1c0,0,0,0.1,0,0.1c0,0.1,0,0.1,0,0.2c0,0.1,0,0.2,0,0.4c0,0.3,0,0.5,0,0.8c0,0.3,0,0.6,0,0.9
			c0,0.3,0,0.5,0,0.8c0,0.2,0,0.3,0,0.4c0.3,0,0.6,0,0.8,0c0.3,0,0.5-0.1,0.7-0.2c0.2-0.1,0.4-0.2,0.6-0.3c0.2-0.1,0.3-0.3,0.4-0.4
			c0.1-0.2,0.2-0.3,0.2-0.5c0.1-0.2,0.1-0.4,0.1-0.6C135.5,65.4,135.4,65.1,135.2,64.8z"/>
		<path class="st1" d="M146.7,71.5h-6.5v-0.1c0.2,0,0.3-0.1,0.5-0.1c0.2-0.1,0.3-0.2,0.4-0.3c0,0,0.1-0.1,0.1-0.2
			c0-0.1,0-0.2,0.1-0.3c0-0.1,0-0.2,0-0.3c0-0.1,0-0.2,0-0.3c0-0.1,0-0.2,0-0.4c0-0.2,0-0.4,0-0.6c0-0.2,0-0.4,0-0.6
			c0-0.2,0-0.4,0-0.6v-2.1c0-0.1,0-0.3,0-0.4c0-0.1,0-0.3,0-0.4c0-0.1,0-0.2-0.1-0.3c0-0.1-0.1-0.2-0.1-0.2
			c-0.1-0.1-0.2-0.2-0.3-0.2c-0.1,0-0.3-0.1-0.5-0.1v-0.1h5.9l0.7,1.8l-0.1,0.1c-0.6-0.7-1.1-1.2-1.6-1.5c-0.1-0.1-0.3-0.1-0.7-0.1
			c-0.3,0-0.7-0.1-1.2-0.1c-0.1,0-0.3,0-0.5,0c-0.2,0-0.3,0-0.3,0c0,0.1,0,0.3,0,0.7c0,0.4,0,0.8,0,1.2c0,0.3,0,0.5,0,0.7
			c0,0.2,0,0.3,0,0.5c0,0.1,0,0.2,0,0.3c0,0.1,0,0.1,0,0.1c0,0,0.1,0,0.2,0c0.1,0,0.2,0,0.4,0c0.1,0,0.3,0,0.4,0c0.1,0,0.3,0,0.3,0
			c0.2-0.1,0.4-0.1,0.5-0.2c0.1-0.1,0.3-0.2,0.3-0.3c0.1-0.1,0.2-0.3,0.2-0.4c0.1-0.2,0.1-0.3,0.1-0.5h0.1v3.4h-0.1
			c-0.1-0.2-0.1-0.5-0.3-0.7c-0.1-0.2-0.2-0.4-0.4-0.5c-0.1-0.1-0.3-0.2-0.4-0.2c-0.2-0.1-0.3-0.1-0.6-0.1c-0.1,0-0.2,0-0.3,0
			c-0.1,0-0.1,0-0.2,0c-0.1,0-0.1,0-0.2,0c-0.1,0-0.2,0-0.3,0c0,0.1,0,0.2,0,0.4c0,0.2,0,0.4,0,0.6c0,0.1,0,0.2,0,0.3
			c0,0.1,0,0.2,0,0.4c0,0.1,0,0.2,0,0.3c0,0.1,0,0.2,0,0.3c0,0.2,0,0.4,0,0.6c0,0.2,0.1,0.4,0.1,0.5c0.1,0.1,0.2,0.2,0.5,0.2
			c0.2,0,0.5,0.1,0.8,0.1c0.1,0,0.3,0,0.5,0c0.2,0,0.4,0,0.6-0.1c0.2,0,0.4-0.1,0.6-0.2c0.2-0.1,0.4-0.2,0.6-0.3
			c0.2-0.1,0.4-0.3,0.5-0.6c0.2-0.2,0.3-0.5,0.5-0.8l0.1,0L146.7,71.5z"/>
		<path class="st1" d="M160.1,70.1c-0.1,0.2-0.2,0.4-0.3,0.5c-0.1,0.2-0.3,0.3-0.4,0.4c-0.2,0.1-0.3,0.2-0.5,0.3
			c-0.3,0.1-0.6,0.2-0.9,0.2c-0.3,0-0.7,0-1,0h-3.7v-0.1c0.2,0,0.3-0.1,0.5-0.1c0.2-0.1,0.3-0.2,0.4-0.3c0,0,0.1-0.1,0.1-0.2
			c0-0.1,0-0.2,0.1-0.3c0-0.1,0-0.2,0-0.3c0-0.1,0-0.2,0-0.3c0-0.1,0-0.2,0-0.4c0-0.2,0-0.4,0-0.6c0-0.2,0-0.4,0-0.6
			c0-0.2,0-0.4,0-0.6c0-0.2,0-0.4,0-0.6s0-0.3,0-0.5c0-0.2,0-0.3,0-0.5c0-0.2,0-0.4,0-0.6c0-0.1,0-0.3,0-0.4c0-0.1,0-0.3,0-0.4
			c0-0.1,0-0.2-0.1-0.3c0-0.1-0.1-0.2-0.1-0.2c-0.1-0.1-0.2-0.2-0.3-0.2c-0.1,0-0.3-0.1-0.5-0.1v-0.1h3.6c0.3,0,0.5,0,0.8,0
			c0.2,0,0.5,0.1,0.7,0.2c0.4,0.1,0.7,0.3,0.9,0.6c0.2,0.3,0.4,0.6,0.4,1.1c0,0.5-0.2,0.9-0.5,1.1c-0.3,0.3-0.7,0.5-1.2,0.6v0
			c0.3,0,0.5,0.1,0.8,0.2c0.2,0.1,0.5,0.2,0.7,0.4c0.2,0.2,0.4,0.4,0.5,0.6c0.1,0.2,0.2,0.5,0.2,0.8
			C160.2,69.6,160.2,69.8,160.1,70.1z M158.3,64.7c-0.2-0.3-0.4-0.5-0.7-0.6c-0.3-0.1-0.7-0.2-1.2-0.2c-0.1,0-0.3,0-0.4,0
			c-0.1,0-0.2,0-0.3,0.1c0,0,0,0.1,0,0.1c0,0,0,0.1,0,0.1c0,0.1,0,0.1,0,0.2c0,0.1,0,0.2,0,0.3c0,0.2,0,0.5,0,0.8c0,0.3,0,0.6,0,0.9
			c0,0.3,0,0.5,0,0.7c0,0.2,0,0.3,0,0.3c0.2,0,0.4,0,0.6,0c0.2,0,0.3,0,0.4,0c0.6,0,1.1-0.2,1.5-0.5c0.3-0.3,0.5-0.7,0.5-1.2
			C158.6,65.3,158.5,65,158.3,64.7z M158.9,68.9c-0.1-0.2-0.2-0.3-0.3-0.5c-0.1-0.2-0.3-0.3-0.4-0.4c-0.2-0.1-0.3-0.2-0.5-0.3
			c-0.2-0.1-0.3-0.1-0.5-0.1c-0.2,0-0.3,0-0.5,0h-1c0,0.2,0,0.5,0,0.7c0,0.2,0,0.4,0,0.7c0,0.2,0,0.4,0,0.6c0,0.2,0,0.3,0,0.4
			c0,0.3,0,0.5,0,0.7c0,0.2,0.1,0.3,0.2,0.4c0.1,0.1,0.2,0.1,0.3,0.2c0.1,0.1,0.3,0.1,0.6,0.1c0.2,0,0.4,0,0.7,0
			c0.2,0,0.5-0.1,0.7-0.2c0.3-0.2,0.5-0.4,0.7-0.6c0.2-0.3,0.2-0.6,0.2-0.9C159,69.3,159,69.1,158.9,68.9z"/>
		<path class="st1" d="M170.6,69.1c-0.2,0.5-0.5,0.9-0.9,1.3c-0.4,0.4-0.8,0.6-1.3,0.8c-0.5,0.2-1,0.3-1.6,0.3
			c-0.5,0-1.1-0.1-1.5-0.3c-0.5-0.2-0.9-0.5-1.3-0.8c-0.4-0.3-0.7-0.8-0.9-1.2c-0.2-0.5-0.3-1-0.3-1.6c0-0.6,0.1-1.2,0.3-1.7
			c0.2-0.5,0.5-0.9,0.9-1.2c0.4-0.3,0.8-0.6,1.3-0.8c0.5-0.2,1-0.3,1.6-0.3c0.6,0,1.2,0.1,1.6,0.3c0.5,0.2,0.9,0.5,1.2,0.9
			c0.3,0.4,0.6,0.8,0.8,1.2c0.2,0.5,0.3,1,0.3,1.5C170.9,68.1,170.8,68.7,170.6,69.1z M169.4,66.3c-0.1-0.4-0.3-0.8-0.5-1.2
			c-0.2-0.4-0.5-0.7-0.8-0.9c-0.3-0.2-0.7-0.3-1.2-0.3c-0.5,0-0.9,0.1-1.2,0.3c-0.3,0.2-0.6,0.5-0.8,0.9c-0.2,0.4-0.4,0.8-0.5,1.2
			c-0.1,0.5-0.2,0.9-0.2,1.4c0,0.5,0.1,1,0.2,1.4c0.1,0.5,0.3,0.8,0.5,1.2c0.2,0.3,0.5,0.6,0.8,0.8c0.3,0.2,0.7,0.3,1.2,0.3
			c0.5,0,0.8-0.1,1.2-0.3c0.3-0.2,0.6-0.5,0.8-0.9c0.2-0.4,0.4-0.8,0.5-1.2c0.1-0.5,0.2-0.9,0.2-1.3
			C169.6,67.1,169.5,66.7,169.4,66.3z"/>
		<path class="st1" d="M180.9,69.1c-0.2,0.5-0.5,0.9-0.9,1.3c-0.4,0.4-0.8,0.6-1.3,0.8c-0.5,0.2-1,0.3-1.6,0.3
			c-0.5,0-1.1-0.1-1.5-0.3c-0.5-0.2-0.9-0.5-1.3-0.8c-0.4-0.3-0.7-0.8-0.9-1.2c-0.2-0.5-0.3-1-0.3-1.6c0-0.6,0.1-1.2,0.3-1.7
			c0.2-0.5,0.5-0.9,0.9-1.2c0.4-0.3,0.8-0.6,1.3-0.8c0.5-0.2,1-0.3,1.6-0.3c0.6,0,1.2,0.1,1.6,0.3c0.5,0.2,0.9,0.5,1.2,0.9
			c0.3,0.4,0.6,0.8,0.8,1.2c0.2,0.5,0.3,1,0.3,1.5C181.2,68.1,181.1,68.7,180.9,69.1z M179.7,66.3c-0.1-0.4-0.3-0.8-0.5-1.2
			c-0.2-0.4-0.5-0.7-0.8-0.9c-0.3-0.2-0.7-0.3-1.2-0.3c-0.5,0-0.9,0.1-1.2,0.3c-0.3,0.2-0.6,0.5-0.8,0.9c-0.2,0.4-0.4,0.8-0.5,1.2
			c-0.1,0.5-0.2,0.9-0.2,1.4c0,0.5,0.1,1,0.2,1.4c0.1,0.5,0.3,0.8,0.5,1.2c0.2,0.3,0.5,0.6,0.8,0.8c0.3,0.2,0.7,0.3,1.2,0.3
			c0.5,0,0.8-0.1,1.2-0.3c0.3-0.2,0.6-0.5,0.8-0.9c0.2-0.4,0.4-0.8,0.5-1.2c0.1-0.5,0.2-0.9,0.2-1.3
			C179.9,67.1,179.8,66.7,179.7,66.3z"/>
		<path class="st1" d="M189.4,71.5C189.3,71.5,189.3,71.4,189.4,71.5c-0.1-0.1-0.2-0.1-0.2-0.2c-0.5-0.5-0.9-1-1.3-1.5
			c-0.4-0.5-0.8-1-1.3-1.4c-0.2-0.2-0.3-0.3-0.4-0.4c-0.1-0.1-0.1-0.1-0.2-0.1c-0.1,0-0.1,0-0.1,0c0,0,0,0.1-0.1,0.1
			c0,0.4,0,0.7,0,1.1c0,0.3,0,0.6,0,0.8c0,0.2,0,0.4,0,0.6c0,0.2,0.1,0.3,0.1,0.4c0.1,0.1,0.1,0.1,0.2,0.2c0.1,0.1,0.2,0.1,0.3,0.1
			c0.1,0,0.2,0.1,0.3,0.1c0.1,0,0.2,0,0.3,0v0.1h-3.4v-0.1c0.2,0,0.3-0.1,0.5-0.1c0.2-0.1,0.3-0.1,0.4-0.2c0,0,0.1-0.1,0.1-0.2
			c0-0.1,0-0.2,0-0.3c0-0.1,0-0.2,0-0.4c0-0.1,0-0.2,0-0.4c0-0.1,0-0.2,0-0.4c0-0.2,0-0.4,0-0.6c0-0.2,0-0.4,0-0.6
			c0-0.2,0-0.4,0-0.6v-2.1c0-0.3,0-0.5,0-0.7c0-0.2-0.1-0.4-0.1-0.5c-0.1-0.1-0.2-0.2-0.4-0.3c-0.1-0.1-0.3-0.1-0.5-0.1v-0.1h3.3
			v0.1c-0.1,0-0.3,0-0.4,0.1c-0.1,0-0.2,0.1-0.3,0.2c-0.1,0.1-0.2,0.2-0.3,0.4c-0.1,0.2-0.1,0.4-0.1,0.7c0,0.2,0,0.3,0,0.5
			c0,0.1,0,0.3,0,0.5c0,0.2,0,0.4,0,0.7c0,0.3,0,0.6,0,1c0.1-0.1,0.3-0.2,0.5-0.4c0.2-0.2,0.4-0.4,0.7-0.6c0.2-0.2,0.5-0.5,0.7-0.7
			c0.2-0.3,0.4-0.5,0.6-0.7c0.1-0.1,0.2-0.3,0.3-0.4c0.1-0.1,0.1-0.3,0.1-0.4c0-0.2-0.1-0.4-0.2-0.5c-0.1-0.1-0.3-0.2-0.5-0.2v-0.1
			h2.9v0.1c-0.4,0-0.7,0.2-1.1,0.5c-0.4,0.3-0.7,0.6-1.1,0.9c-0.2,0.1-0.3,0.3-0.5,0.4c-0.2,0.2-0.3,0.3-0.5,0.5
			c-0.2,0.2-0.3,0.3-0.5,0.5c-0.1,0.1-0.3,0.3-0.4,0.4c0.1,0.1,0.2,0.2,0.4,0.5c0.2,0.2,0.5,0.5,0.7,0.8c0.3,0.3,0.6,0.7,0.9,1
			c0.3,0.4,0.6,0.7,0.9,1c0.1,0.1,0.2,0.2,0.2,0.3c0.1,0.1,0.2,0.2,0.3,0.2c0.1,0.1,0.2,0.1,0.2,0.2c0.1,0,0.1,0.1,0.1,0.1
			c0.1,0,0.2,0.1,0.4,0.1c0.2,0,0.3,0.1,0.5,0.1v0.1H189.4z"/>
		<path class="st1" d="M198.8,70.3c-0.1,0.3-0.3,0.5-0.6,0.7c-0.2,0.2-0.5,0.3-0.9,0.4c-0.3,0.1-0.7,0.1-1.1,0.1
			c-0.3,0-0.6,0-0.9-0.1c-0.2,0-0.5-0.1-0.6-0.2c-0.2-0.1-0.3-0.1-0.4-0.2c-0.1-0.1-0.1-0.1-0.2-0.1c0,0-0.1,0-0.1,0.1
			c-0.1,0.1-0.1,0.2-0.2,0.2h-0.1l0-2.1h0.1c0.1,0.2,0.1,0.4,0.2,0.6c0.1,0.2,0.2,0.4,0.3,0.5c0.1,0.2,0.2,0.3,0.4,0.4
			c0.1,0.1,0.3,0.2,0.4,0.3c0.1,0.1,0.3,0.1,0.5,0.2c0.2,0.1,0.4,0.1,0.6,0.1c0.5,0,1-0.1,1.3-0.4c0.3-0.3,0.5-0.7,0.5-1.2
			c0-0.2,0-0.4-0.1-0.5c-0.1-0.1-0.2-0.3-0.3-0.4c-0.1-0.1-0.2-0.2-0.4-0.3c-0.1-0.1-0.3-0.1-0.5-0.2c-0.2-0.1-0.3-0.1-0.5-0.2
			c-0.1,0-0.2-0.1-0.4-0.1c-0.1,0-0.2-0.1-0.3-0.1c-0.1,0-0.3-0.1-0.4-0.2c-0.2-0.1-0.4-0.2-0.5-0.3c-0.2-0.1-0.3-0.3-0.5-0.4
			c-0.1-0.2-0.2-0.4-0.3-0.6s-0.1-0.4-0.1-0.6c0-0.4,0.1-0.7,0.2-1c0.1-0.3,0.3-0.5,0.6-0.7c0.2-0.2,0.5-0.3,0.8-0.4
			c0.3-0.1,0.6-0.1,1-0.1c0.3,0,0.6,0,0.8,0.1c0.2,0.1,0.4,0.1,0.6,0.2c0.1,0.1,0.3,0.1,0.3,0.2c0.1,0.1,0.1,0.1,0.1,0.1
			c0,0,0.1,0,0.1-0.1c0.1-0.1,0.1-0.2,0.2-0.3h0.1v2h-0.1c-0.1-0.2-0.2-0.5-0.3-0.7c-0.1-0.2-0.3-0.4-0.5-0.6
			c-0.2-0.2-0.4-0.3-0.6-0.4c-0.2-0.1-0.5-0.2-0.8-0.2c-0.2,0-0.4,0-0.6,0.1c-0.2,0.1-0.4,0.2-0.5,0.3c-0.1,0.1-0.3,0.3-0.3,0.5
			c-0.1,0.2-0.1,0.4-0.1,0.6c0,0.4,0.1,0.7,0.3,0.9c0.2,0.2,0.5,0.4,0.9,0.5c0.1,0.1,0.3,0.1,0.4,0.1c0.1,0,0.2,0.1,0.4,0.1
			c0.1,0,0.2,0.1,0.4,0.1c0.1,0,0.3,0.1,0.4,0.1c0.5,0.2,0.9,0.4,1.1,0.8c0.3,0.3,0.4,0.8,0.4,1.3C199,69.7,198.9,70,198.8,70.3z"/>
	</g>
</g>
</svg>
